<svg id="NVIDIA_Logo_V" data-name="NVIDIA Logo V" xmlns="http://www.w3.org/2000/svg" viewBox="0 0 974.7 179.71"><defs><style>.cls-1{fill:#fff;}.cls-2{fill:#76b900;}</style></defs><title>NVIDIA-Logo</title><path id="Reg" class="cls-1" d="M962.11,144.13v-2.69h1.73c0.94,0,2.23.07,2.23,1.22s-0.66,1.47-1.78,1.47h-2.18m0,1.89h1.16l2.68,4.71h2.94l-3-4.9a2.66,2.66,0,0,0,2.79-2.91c0-2.56-1.77-3.39-4.76-3.39h-4.33v11.19h2.49V146m12.59-.88c0-6.57-5.11-10.39-10.8-10.39s-10.83,3.81-10.83,10.39,5.1,10.4,10.83,10.4,10.8-3.83,10.8-10.4m-3.12,0a7.67,7.67,0,0,1-7.68,8v0A8,8,0,1,1,971.58,145.14Z"/><path id="NVIDIA" class="cls-1" d="M578.25,34v118h33.31V34H578.25ZM316.18,33.8V151.92h33.61V60.23L376,60.32c8.63,0,14.59,2.07,18.74,6.5,5.27,5.62,7.42,14.67,7.42,31.23v53.87h32.56V86.66C434.74,40.08,405,33.8,376,33.8H316.18ZM631.88,34v118h54c28.79,0,38.18-4.79,48.35-15.52,7.18-7.54,11.82-24.08,11.82-42.16,0-16.58-3.93-31.37-10.78-40.58C723,37.18,705.18,34,678.64,34H631.88Zm33,25.68h14.32c20.78,0,34.22,9.33,34.22,33.54S700,126.74,679.25,126.74H664.93V59.65ZM530.21,34l-27.8,93.48L475.77,34h-36l38,118h48L564.22,34h-34Zm231.37,118h33.32V34H761.58v118ZM855,34L808.46,151.88h32.85L848.67,131h55.05l7,20.83h35.66L899.48,34H855Zm21.63,21.5,20.18,55.22h-41Z"/><path id="Eye_Mark" data-name="Eye Mark" class="cls-2" d="M101.33,53.63V37.39c1.58-.11,3.17-0.2,4.79-0.25,44.4-1.4,73.53,38.15,73.53,38.15S148.19,119,114.46,119a40.91,40.91,0,0,1-13.13-2.1V67.67c17.29,2.09,20.76,9.72,31.15,27L155.6,75.22S138.73,53.1,110.29,53.1a83.81,83.81,0,0,0-9,.53m0-53.62V24.25c1.59-.13,3.19-0.23,4.79-0.29,61.74-2.08,102,50.64,102,50.64s-46.2,56.18-94.34,56.18a71,71,0,0,1-12.42-1.09v15a81.75,81.75,0,0,0,10.34.67c44.79,0,77.19-22.87,108.56-49.95,5.2,4.16,26.49,14.29,30.87,18.73-29.83,25-99.33,45.09-138.74,45.09-3.8,0-7.45-.23-11-0.57v21.06H271.59V0H101.33Zm0,116.89v12.8C59.9,122.3,48.4,79.24,48.4,79.24s19.89-22,52.93-25.61v14h-0.06C83.93,65.58,70.39,81.78,70.39,81.78S78,109,101.33,116.89M27.75,77.37s24.55-36.23,73.58-40V24.25C47,28.61,0,74.6,0,74.6s26.63,77,101.33,84.05v-14C46.52,137.78,27.75,77.37,27.75,77.37Z"/></svg>